<?xml version="1.0" encoding="UTF-8" standalone="no"?>
<!DOCTYPE svg PUBLIC "-//W3C//DTD SVG 1.1//EN"
 "http://www.w3.org/Graphics/SVG/1.1/DTD/svg11.dtd">
<!-- Generated by graphviz version 2.47.0 (20210316.0004)
 -->
<!-- Title: dependencies Pages: 1 -->
<svg width="1000pt" height="284pt"
 viewBox="0.00 0.00 1000.00 284.00" xmlns="http://www.w3.org/2000/svg" xmlns:xlink="http://www.w3.org/1999/xlink">
<g id="graph0" class="graph" transform="scale(1 1) rotate(0) translate(4 280)">
<title>dependencies</title>
<polygon fill="white" stroke="transparent" points="-4,4 -4,-280 996,-280 996,4 -4,4"/>
<text text-anchor="start" x="475.01" y="-42.4" font-family="Times-12" font-weight="bold" font-size="14.00">Legend</text>
<polygon fill="#ffffb3" stroke="transparent" points="262,-10 262,-30 282,-30 282,-10 262,-10"/>
<text text-anchor="start" x="285.63" y="-15.4" font-family="Times-12" font-size="14.00"> &#160;Declarations</text>
<polygon fill="#8dd3c7" stroke="transparent" points="375,-10 375,-30 395,-30 395,-10 375,-10"/>
<text text-anchor="start" x="398.73" y="-15.4" font-family="Times-12" font-size="14.00"> &#160;Module</text>
<polygon fill="#80b1d3" stroke="transparent" points="461,-10 461,-30 481,-30 481,-10 461,-10"/>
<text text-anchor="start" x="484.78" y="-15.4" font-family="Times-12" font-size="14.00"> &#160;Bootstrap</text>
<polygon fill="#fdb462" stroke="transparent" points="558,-10 558,-30 578,-30 578,-10 558,-10"/>
<text text-anchor="start" x="581.67" y="-15.4" font-family="Times-12" font-size="14.00"> &#160;Providers</text>
<polygon fill="#fb8072" stroke="transparent" points="654,-10 654,-30 674,-30 674,-10 654,-10"/>
<text text-anchor="start" x="677.73" y="-15.4" font-family="Times-12" font-size="14.00"> &#160;Exports</text>
<g id="clust1" class="cluster">
<title>cluster_AppModule</title>
<polygon fill="none" stroke="black" stroke-dasharray="1,5" points="8,-70 8,-268 984,-268 984,-70 8,-70"/>
</g>
<g id="clust8" class="cluster">
<title>cluster_AppModule_imports</title>
<polygon fill="none" stroke="black" points="832,-78 832,-130 976,-130 976,-78 832,-78"/>
</g>
<g id="clust10" class="cluster">
<title>cluster_AppModule_bootstrap</title>
<polygon fill="none" stroke="black" points="467,-208 467,-260 591,-260 591,-208 467,-208"/>
</g>
<g id="clust2" class="cluster">
<title>cluster_AppModule_declarations</title>
<polygon fill="none" stroke="black" points="16,-78 16,-130 824,-130 824,-78 16,-78"/>
</g>
<!-- AppComponent -->
<g id="node1" class="node">
<title>AppComponent</title>
<polygon fill="#ffffb3" stroke="black" points="815.94,-122 710.06,-122 710.06,-86 815.94,-86 815.94,-122"/>
<text text-anchor="middle" x="763" y="-99.8" font-family="Times,serif" font-size="14.00">AppComponent</text>
</g>
<!-- AppModule -->
<g id="node6" class="node">
<title>AppModule</title>
<polygon fill="#8dd3c7" stroke="black" points="570.66,-187 567.66,-191 546.66,-191 543.66,-187 487.34,-187 487.34,-151 570.66,-151 570.66,-187"/>
<text text-anchor="middle" x="529" y="-164.8" font-family="Times,serif" font-size="14.00">AppModule</text>
</g>
<!-- AppComponent&#45;&gt;AppModule -->
<g id="edge1" class="edge">
<title>AppComponent&#45;&gt;AppModule</title>
<path fill="none" stroke="black" d="M763,-122.02C763,-139.37 763,-163 763,-163 763,-163 580.83,-163 580.83,-163"/>
<polygon fill="black" stroke="black" points="580.83,-159.5 570.83,-163 580.83,-166.5 580.83,-159.5"/>
</g>
<!-- CountryDetailsComponent -->
<g id="node2" class="node">
<title>CountryDetailsComponent</title>
<polygon fill="#ffffb3" stroke="black" points="692.37,-122 525.63,-122 525.63,-86 692.37,-86 692.37,-122"/>
<text text-anchor="middle" x="609" y="-99.8" font-family="Times,serif" font-size="14.00">CountryDetailsComponent</text>
</g>
<!-- CountryDetailsComponent&#45;&gt;AppModule -->
<g id="edge2" class="edge">
<title>CountryDetailsComponent&#45;&gt;AppModule</title>
<path fill="none" stroke="black" d="M548.2,-122.11C548.2,-122.11 548.2,-140.99 548.2,-140.99"/>
<polygon fill="black" stroke="black" points="544.7,-140.99 548.2,-150.99 551.7,-140.99 544.7,-140.99"/>
</g>
<!-- HomeComponent -->
<g id="node3" class="node">
<title>HomeComponent</title>
<polygon fill="#ffffb3" stroke="black" points="507.55,-122 392.45,-122 392.45,-86 507.55,-86 507.55,-122"/>
<text text-anchor="middle" x="450" y="-99.8" font-family="Times,serif" font-size="14.00">HomeComponent</text>
</g>
<!-- HomeComponent&#45;&gt;AppModule -->
<g id="edge3" class="edge">
<title>HomeComponent&#45;&gt;AppModule</title>
<path fill="none" stroke="black" d="M497.47,-122.11C497.47,-122.11 497.47,-140.99 497.47,-140.99"/>
<polygon fill="black" stroke="black" points="493.97,-140.99 497.47,-150.99 500.97,-140.99 493.97,-140.99"/>
</g>
<!-- MedalCountryChartComponent -->
<g id="node4" class="node">
<title>MedalCountryChartComponent</title>
<polygon fill="#ffffb3" stroke="black" points="374.09,-122 179.91,-122 179.91,-86 374.09,-86 374.09,-122"/>
<text text-anchor="middle" x="277" y="-99.8" font-family="Times,serif" font-size="14.00">MedalCountryChartComponent</text>
</g>
<!-- MedalCountryChartComponent&#45;&gt;AppModule -->
<g id="edge4" class="edge">
<title>MedalCountryChartComponent&#45;&gt;AppModule</title>
<path fill="none" stroke="black" d="M277,-122.02C277,-139.37 277,-163 277,-163 277,-163 477.1,-163 477.1,-163"/>
<polygon fill="black" stroke="black" points="477.1,-166.5 487.1,-163 477.1,-159.5 477.1,-166.5"/>
</g>
<!-- NotFoundComponent -->
<g id="node5" class="node">
<title>NotFoundComponent</title>
<polygon fill="#ffffb3" stroke="black" points="162.11,-122 23.89,-122 23.89,-86 162.11,-86 162.11,-122"/>
<text text-anchor="middle" x="93" y="-99.8" font-family="Times,serif" font-size="14.00">NotFoundComponent</text>
</g>
<!-- NotFoundComponent&#45;&gt;AppModule -->
<g id="edge5" class="edge">
<title>NotFoundComponent&#45;&gt;AppModule</title>
<path fill="none" stroke="black" d="M93,-122.28C93,-143.32 93,-175 93,-175 93,-175 477.19,-175 477.19,-175"/>
<polygon fill="black" stroke="black" points="477.19,-178.5 487.19,-175 477.19,-171.5 477.19,-178.5"/>
</g>
<!-- AppComponent  -->
<g id="node8" class="node">
<title>AppComponent </title>
<polygon fill="#80b1d3" stroke="black" points="583.44,-252 474.56,-252 474.56,-216 583.44,-216 583.44,-252"/>
<text text-anchor="middle" x="529" y="-229.8" font-family="Times,serif" font-size="14.00">AppComponent </text>
</g>
<!-- AppModule&#45;&gt;AppComponent  -->
<g id="edge7" class="edge">
<title>AppModule&#45;&gt;AppComponent </title>
<path fill="none" stroke="black" stroke-dasharray="1,5" d="M529,-187.11C529,-187.11 529,-205.99 529,-205.99"/>
<polygon fill="black" stroke="black" points="525.5,-205.99 529,-215.99 532.5,-205.99 525.5,-205.99"/>
</g>
<!-- AppRoutingModule -->
<g id="node7" class="node">
<title>AppRoutingModule</title>
<polygon fill="#8dd3c7" stroke="black" points="968.27,-122 965.27,-126 944.27,-126 941.27,-122 839.73,-122 839.73,-86 968.27,-86 968.27,-122"/>
<text text-anchor="middle" x="904" y="-99.8" font-family="Times,serif" font-size="14.00">AppRoutingModule</text>
</g>
<!-- AppRoutingModule&#45;&gt;AppModule -->
<g id="edge6" class="edge">
<title>AppRoutingModule&#45;&gt;AppModule</title>
<path fill="none" stroke="black" d="M904,-122.28C904,-143.32 904,-175 904,-175 904,-175 580.93,-175 580.93,-175"/>
<polygon fill="black" stroke="black" points="580.93,-171.5 570.93,-175 580.93,-178.5 580.93,-171.5"/>
</g>
</g>
</svg>
