<?xml version="1.0" encoding="UTF-8" standalone="no"?>
<!DOCTYPE svg PUBLIC "-//W3C//DTD SVG 1.1//EN"
 "http://www.w3.org/Graphics/SVG/1.1/DTD/svg11.dtd">
<!-- Generated by graphviz version 2.47.0 (20210316.0004)
 -->
<!-- Title: dependencies Pages: 1 -->
<svg width="1000pt" height="284pt"
 viewBox="0.00 0.00 1000.00 284.00" xmlns="http://www.w3.org/2000/svg" xmlns:xlink="http://www.w3.org/1999/xlink">
<g id="graph0" class="graph" transform="scale(1 1) rotate(0) translate(4 280)">
<title>dependencies</title>
<polygon fill="white" stroke="transparent" points="-4,4 -4,-280 996,-280 996,4 -4,4"/>
<text text-anchor="start" x="475.01" y="-42.4" font-family="Times-12" font-weight="bold" font-size="14.00">Legend</text>
<polygon fill="#ffffb3" stroke="transparent" points="262,-10 262,-30 282,-30 282,-10 262,-10"/>
<text text-anchor="start" x="285.63" y="-15.4" font-family="Times-12" font-size="14.00"> &#160;Declarations</text>
<polygon fill="#8dd3c7" stroke="transparent" points="375,-10 375,-30 395,-30 395,-10 375,-10"/>
<text text-anchor="start" x="398.73" y="-15.4" font-family="Times-12" font-size="14.00"> &#160;Module</text>
<polygon fill="#80b1d3" stroke="transparent" points="461,-10 461,-30 481,-30 481,-10 461,-10"/>
<text text-anchor="start" x="484.78" y="-15.4" font-family="Times-12" font-size="14.00"> &#160;Bootstrap</text>
<polygon fill="#fdb462" stroke="transparent" points="558,-10 558,-30 578,-30 578,-10 558,-10"/>
<text text-anchor="start" x="581.67" y="-15.4" font-family="Times-12" font-size="14.00"> &#160;Providers</text>
<polygon fill="#fb8072" stroke="transparent" points="654,-10 654,-30 674,-30 674,-10 654,-10"/>
<text text-anchor="start" x="677.73" y="-15.4" font-family="Times-12" font-size="14.00"> &#160;Exports</text>
<g id="clust1" class="cluster">
<title>cluster_AppModule</title>
<polygon fill="none" stroke="black" stroke-dasharray="1,5" points="8,-70 8,-268 984,-268 984,-70 8,-70"/>
</g>
<g id="clust2" class="cluster">
<title>cluster_AppModule_declarations</title>
<polygon fill="none" stroke="black" points="168,-78 168,-130 976,-130 976,-78 168,-78"/>
</g>
<g id="clust8" class="cluster">
<title>cluster_AppModule_imports</title>
<polygon fill="none" stroke="black" points="16,-78 16,-130 160,-130 160,-78 16,-78"/>
</g>
<g id="clust10" class="cluster">
<title>cluster_AppModule_bootstrap</title>
<polygon fill="none" stroke="black" points="453,-208 453,-260 577,-260 577,-208 453,-208"/>
</g>
<!-- AppComponent -->
<g id="node1" class="node">
<title>AppComponent</title>
<polygon fill="#ffffb3" stroke="black" points="967.94,-122 862.06,-122 862.06,-86 967.94,-86 967.94,-122"/>
<text text-anchor="middle" x="915" y="-99.8" font-family="Times,serif" font-size="14.00">AppComponent</text>
</g>
<!-- AppModule -->
<g id="node6" class="node">
<title>AppModule</title>
<polygon fill="#8dd3c7" stroke="black" points="556.66,-187 553.66,-191 532.66,-191 529.66,-187 473.34,-187 473.34,-151 556.66,-151 556.66,-187"/>
<text text-anchor="middle" x="515" y="-164.8" font-family="Times,serif" font-size="14.00">AppModule</text>
</g>
<!-- AppComponent&#45;&gt;AppModule -->
<g id="edge1" class="edge">
<title>AppComponent&#45;&gt;AppModule</title>
<path fill="none" stroke="black" d="M915,-122.28C915,-143.32 915,-175 915,-175 915,-175 566.68,-175 566.68,-175"/>
<polygon fill="black" stroke="black" points="566.68,-171.5 556.68,-175 566.67,-178.5 566.68,-171.5"/>
</g>
<!-- CountryDetailsComponent -->
<g id="node2" class="node">
<title>CountryDetailsComponent</title>
<polygon fill="#ffffb3" stroke="black" points="844.37,-122 677.63,-122 677.63,-86 844.37,-86 844.37,-122"/>
<text text-anchor="middle" x="761" y="-99.8" font-family="Times,serif" font-size="14.00">CountryDetailsComponent</text>
</g>
<!-- CountryDetailsComponent&#45;&gt;AppModule -->
<g id="edge2" class="edge">
<title>CountryDetailsComponent&#45;&gt;AppModule</title>
<path fill="none" stroke="black" d="M761,-122.02C761,-139.37 761,-163 761,-163 761,-163 566.73,-163 566.73,-163"/>
<polygon fill="black" stroke="black" points="566.73,-159.5 556.73,-163 566.73,-166.5 566.73,-159.5"/>
</g>
<!-- HomeComponent -->
<g id="node3" class="node">
<title>HomeComponent</title>
<polygon fill="#ffffb3" stroke="black" points="659.55,-122 544.45,-122 544.45,-86 659.55,-86 659.55,-122"/>
<text text-anchor="middle" x="602" y="-99.8" font-family="Times,serif" font-size="14.00">HomeComponent</text>
</g>
<!-- HomeComponent&#45;&gt;AppModule -->
<g id="edge3" class="edge">
<title>HomeComponent&#45;&gt;AppModule</title>
<path fill="none" stroke="black" d="M550.53,-122.11C550.53,-122.11 550.53,-140.99 550.53,-140.99"/>
<polygon fill="black" stroke="black" points="547.03,-140.99 550.53,-150.99 554.03,-140.99 547.03,-140.99"/>
</g>
<!-- MedalCountryChartComponent -->
<g id="node4" class="node">
<title>MedalCountryChartComponent</title>
<polygon fill="#ffffb3" stroke="black" points="526.09,-122 331.91,-122 331.91,-86 526.09,-86 526.09,-122"/>
<text text-anchor="middle" x="429" y="-99.8" font-family="Times,serif" font-size="14.00">MedalCountryChartComponent</text>
</g>
<!-- MedalCountryChartComponent&#45;&gt;AppModule -->
<g id="edge4" class="edge">
<title>MedalCountryChartComponent&#45;&gt;AppModule</title>
<path fill="none" stroke="black" d="M499.61,-122.11C499.61,-122.11 499.61,-140.99 499.61,-140.99"/>
<polygon fill="black" stroke="black" points="496.11,-140.99 499.61,-150.99 503.11,-140.99 496.11,-140.99"/>
</g>
<!-- NotFoundComponent -->
<g id="node5" class="node">
<title>NotFoundComponent</title>
<polygon fill="#ffffb3" stroke="black" points="314.11,-122 175.89,-122 175.89,-86 314.11,-86 314.11,-122"/>
<text text-anchor="middle" x="245" y="-99.8" font-family="Times,serif" font-size="14.00">NotFoundComponent</text>
</g>
<!-- NotFoundComponent&#45;&gt;AppModule -->
<g id="edge5" class="edge">
<title>NotFoundComponent&#45;&gt;AppModule</title>
<path fill="none" stroke="black" d="M245,-122.02C245,-139.37 245,-163 245,-163 245,-163 463.11,-163 463.11,-163"/>
<polygon fill="black" stroke="black" points="463.11,-166.5 473.11,-163 463.11,-159.5 463.11,-166.5"/>
</g>
<!-- AppComponent  -->
<g id="node8" class="node">
<title>AppComponent </title>
<polygon fill="#80b1d3" stroke="black" points="569.44,-252 460.56,-252 460.56,-216 569.44,-216 569.44,-252"/>
<text text-anchor="middle" x="515" y="-229.8" font-family="Times,serif" font-size="14.00">AppComponent </text>
</g>
<!-- AppModule&#45;&gt;AppComponent  -->
<g id="edge7" class="edge">
<title>AppModule&#45;&gt;AppComponent </title>
<path fill="none" stroke="black" stroke-dasharray="1,5" d="M515,-187.11C515,-187.11 515,-205.99 515,-205.99"/>
<polygon fill="black" stroke="black" points="511.5,-205.99 515,-215.99 518.5,-205.99 511.5,-205.99"/>
</g>
<!-- AppRoutingModule -->
<g id="node7" class="node">
<title>AppRoutingModule</title>
<polygon fill="#8dd3c7" stroke="black" points="152.27,-122 149.27,-126 128.27,-126 125.27,-122 23.73,-122 23.73,-86 152.27,-86 152.27,-122"/>
<text text-anchor="middle" x="88" y="-99.8" font-family="Times,serif" font-size="14.00">AppRoutingModule</text>
</g>
<!-- AppRoutingModule&#45;&gt;AppModule -->
<g id="edge6" class="edge">
<title>AppRoutingModule&#45;&gt;AppModule</title>
<path fill="none" stroke="black" d="M88,-122.28C88,-143.32 88,-175 88,-175 88,-175 463.28,-175 463.28,-175"/>
<polygon fill="black" stroke="black" points="463.28,-178.5 473.28,-175 463.28,-171.5 463.28,-178.5"/>
</g>
</g>
</svg>
